<?xml version="1.0" encoding="UTF-8" standalone="no"?>
<!DOCTYPE svg PUBLIC "-//W3C//DTD SVG 1.1//EN"
 "http://www.w3.org/Graphics/SVG/1.1/DTD/svg11.dtd">
<!-- Generated by graphviz version 2.43.0 (0)
 -->
<!-- Title: finite_state_machine Pages: 1 -->
<svg width="461pt" height="155pt"
 viewBox="0.00 0.00 461.00 155.00" xmlns="http://www.w3.org/2000/svg" xmlns:xlink="http://www.w3.org/1999/xlink">
<g id="graph0" class="graph" transform="scale(1 1) rotate(0) translate(4 151)">
<title>finite_state_machine</title>
<polygon fill="white" stroke="transparent" points="-4,4 -4,-151 457,-151 457,4 -4,4"/>
<!-- 4 -->
<g id="node1" class="node">
<title>4</title>
<ellipse fill="none" stroke="black" cx="329" cy="-77" rx="18" ry="18"/>
<text text-anchor="middle" x="329" y="-73.3" font-family="Helvetica,Arial,sans-serif" font-size="14.00">4</text>
</g>
<!-- 5 -->
<g id="node2" class="node">
<title>5</title>
<ellipse fill="none" stroke="black" cx="435" cy="-108" rx="18" ry="18"/>
<text text-anchor="middle" x="435" y="-104.3" font-family="Helvetica,Arial,sans-serif" font-size="14.00">5</text>
</g>
<!-- 4&#45;&gt;5 -->
<g id="edge1" class="edge">
<title>4&#45;&gt;5</title>
<path fill="none" stroke="black" d="M346.71,-81.98C363.16,-86.88 388.53,-94.45 407.69,-100.16"/>
<polygon fill="black" stroke="black" points="406.75,-103.53 417.33,-103.03 408.75,-96.82 406.75,-103.53"/>
<text text-anchor="middle" x="382" y="-100.8" font-family="Helvetica,Arial,sans-serif" font-size="14.00">12/14</text>
</g>
<!-- 2 -->
<g id="node3" class="node">
<title>2</title>
<ellipse fill="none" stroke="black" cx="223" cy="-18" rx="18" ry="18"/>
<text text-anchor="middle" x="223" y="-14.3" font-family="Helvetica,Arial,sans-serif" font-size="14.00">2</text>
</g>
<!-- 2&#45;&gt;4 -->
<g id="edge2" class="edge">
<title>2&#45;&gt;4</title>
<path fill="none" stroke="black" d="M240.78,-21.94C255.34,-25.84 276.58,-32.72 293,-43 298.84,-46.66 304.51,-51.43 309.52,-56.23"/>
<polygon fill="black" stroke="black" points="307.29,-58.95 316.78,-63.65 312.29,-54.05 307.29,-58.95"/>
<text text-anchor="middle" x="276" y="-46.8" font-family="Helvetica,Arial,sans-serif" font-size="14.00">10/12</text>
</g>
<!-- 1 -->
<g id="node4" class="node">
<title>1</title>
<ellipse fill="none" stroke="black" cx="223" cy="-129" rx="18" ry="18"/>
<text text-anchor="middle" x="223" y="-125.3" font-family="Helvetica,Arial,sans-serif" font-size="14.00">1</text>
</g>
<!-- 1&#45;&gt;4 -->
<g id="edge3" class="edge">
<title>1&#45;&gt;4</title>
<path fill="none" stroke="black" d="M238.28,-118.76C244.49,-114.54 251.94,-109.76 259,-106 272.89,-98.6 289.08,-91.71 302.29,-86.5"/>
<polygon fill="black" stroke="black" points="303.65,-89.73 311.72,-82.87 301.13,-83.2 303.65,-89.73"/>
<text text-anchor="middle" x="276" y="-109.8" font-family="Helvetica,Arial,sans-serif" font-size="14.00">1/1</text>
</g>
<!-- 1&#45;&gt;5 -->
<g id="edge4" class="edge">
<title>1&#45;&gt;5</title>
<path fill="none" stroke="black" d="M241.48,-128.57C273.09,-127.6 341.76,-124.62 399,-116 401.74,-115.59 404.58,-115.08 407.4,-114.52"/>
<polygon fill="black" stroke="black" points="408.34,-117.89 417.36,-112.34 406.85,-111.06 408.34,-117.89"/>
<text text-anchor="middle" x="329" y="-128.8" font-family="Helvetica,Arial,sans-serif" font-size="14.00">13/21</text>
</g>
<!-- 3 -->
<g id="node5" class="node">
<title>3</title>
<ellipse fill="none" stroke="black" cx="124" cy="-72" rx="18" ry="18"/>
<text text-anchor="middle" x="124" y="-68.3" font-family="Helvetica,Arial,sans-serif" font-size="14.00">3</text>
</g>
<!-- 3&#45;&gt;4 -->
<g id="edge7" class="edge">
<title>3&#45;&gt;4</title>
<path fill="none" stroke="black" d="M142.31,-72.43C177.59,-73.3 258.07,-75.28 300.56,-76.32"/>
<polygon fill="black" stroke="black" points="300.65,-79.83 310.74,-76.57 300.83,-72.83 300.65,-79.83"/>
<text text-anchor="middle" x="223" y="-77.8" font-family="Helvetica,Arial,sans-serif" font-size="14.00">1/5</text>
</g>
<!-- 3&#45;&gt;2 -->
<g id="edge5" class="edge">
<title>3&#45;&gt;2</title>
<path fill="none" stroke="black" d="M137.57,-59.96C143.94,-54.3 152,-47.77 160,-43 171.26,-36.29 184.65,-30.63 196.1,-26.41"/>
<polygon fill="black" stroke="black" points="197.29,-29.7 205.56,-23.07 194.96,-23.1 197.29,-29.7"/>
<text text-anchor="middle" x="173.5" y="-46.8" font-family="Helvetica,Arial,sans-serif" font-size="14.00">2/2</text>
</g>
<!-- 3&#45;&gt;1 -->
<g id="edge6" class="edge">
<title>3&#45;&gt;1</title>
<path fill="none" stroke="black" d="M140.22,-79.91C152.89,-86.6 171.33,-96.57 187,-106 190.96,-108.38 195.12,-111 199.12,-113.59"/>
<polygon fill="black" stroke="black" points="197.24,-116.54 207.52,-119.11 201.09,-110.7 197.24,-116.54"/>
<text text-anchor="middle" x="173.5" y="-109.8" font-family="Helvetica,Arial,sans-serif" font-size="14.00">7/11</text>
</g>
<!-- 0 -->
<g id="node6" class="node">
<title>0</title>
<ellipse fill="none" stroke="black" cx="18" cy="-72" rx="18" ry="18"/>
<text text-anchor="middle" x="18" y="-68.3" font-family="Helvetica,Arial,sans-serif" font-size="14.00">0</text>
</g>
<!-- 0&#45;&gt;2 -->
<g id="edge9" class="edge">
<title>0&#45;&gt;2</title>
<path fill="none" stroke="black" d="M33.77,-62.89C50.59,-53 79.22,-37.6 106,-30 135.56,-21.61 170.84,-18.95 194.67,-18.18"/>
<polygon fill="black" stroke="black" points="194.83,-21.67 204.75,-17.94 194.67,-14.68 194.83,-21.67"/>
<text text-anchor="middle" x="124" y="-33.8" font-family="Helvetica,Arial,sans-serif" font-size="14.00">8/8</text>
</g>
<!-- 0&#45;&gt;1 -->
<g id="edge8" class="edge">
<title>0&#45;&gt;1</title>
<path fill="none" stroke="black" d="M33.98,-81.08C40.04,-84.5 47.21,-88.24 54,-91 99.35,-109.46 112.03,-111.17 160,-121 171.32,-123.32 183.96,-125.09 194.85,-126.37"/>
<polygon fill="black" stroke="black" points="194.73,-129.88 205.05,-127.49 195.49,-122.92 194.73,-129.88"/>
<text text-anchor="middle" x="124" y="-120.8" font-family="Helvetica,Arial,sans-serif" font-size="14.00">7/7</text>
</g>
<!-- 0&#45;&gt;3 -->
<g id="edge10" class="edge">
<title>0&#45;&gt;3</title>
<path fill="none" stroke="black" d="M36.17,-72C52.36,-72 76.87,-72 95.73,-72"/>
<polygon fill="black" stroke="black" points="95.8,-75.5 105.8,-72 95.8,-68.5 95.8,-75.5"/>
<text text-anchor="middle" x="71" y="-75.8" font-family="Helvetica,Arial,sans-serif" font-size="14.00">10/10</text>
</g>
</g>
</svg>
