<?xml version="1.0" encoding="UTF-8" standalone="no"?>
<!DOCTYPE svg PUBLIC "-//W3C//DTD SVG 1.1//EN"
 "http://www.w3.org/Graphics/SVG/1.1/DTD/svg11.dtd">
<!-- Generated by graphviz version 2.43.0 (0)
 -->
<!-- Title: finite_state_machine Pages: 1 -->
<svg width="484pt" height="182pt"
 viewBox="0.00 0.00 484.00 182.00" xmlns="http://www.w3.org/2000/svg" xmlns:xlink="http://www.w3.org/1999/xlink">
<g id="graph0" class="graph" transform="scale(1 1) rotate(0) translate(4 178)">
<title>finite_state_machine</title>
<polygon fill="white" stroke="transparent" points="-4,4 -4,-178 480,-178 480,4 -4,4"/>
<!-- 2 -->
<g id="node1" class="node">
<title>2</title>
<ellipse fill="none" stroke="black" cx="282" cy="-99" rx="18" ry="18"/>
<text text-anchor="middle" x="282" y="-95.3" font-family="Helvetica,Arial,sans-serif" font-size="14.00">2</text>
</g>
<!-- 4 -->
<g id="node2" class="node">
<title>4</title>
<ellipse fill="none" stroke="black" cx="370" cy="-73" rx="18" ry="18"/>
<text text-anchor="middle" x="370" y="-69.3" font-family="Helvetica,Arial,sans-serif" font-size="14.00">4</text>
</g>
<!-- 2&#45;&gt;4 -->
<g id="edge1" class="edge">
<title>2&#45;&gt;4</title>
<path fill="none" stroke="black" d="M299.58,-93.99C311.84,-90.28 328.76,-85.16 342.84,-80.91"/>
<polygon fill="black" stroke="black" points="343.91,-84.24 352.47,-78 341.88,-77.54 343.91,-84.24"/>
<text text-anchor="middle" x="326" y="-91.8" font-family="Helvetica,Arial,sans-serif" font-size="14.00">13</text>
</g>
<!-- 5 -->
<g id="node5" class="node">
<title>5</title>
<ellipse fill="none" stroke="black" cx="458" cy="-18" rx="18" ry="18"/>
<text text-anchor="middle" x="458" y="-14.3" font-family="Helvetica,Arial,sans-serif" font-size="14.00">5</text>
</g>
<!-- 4&#45;&gt;5 -->
<g id="edge5" class="edge">
<title>4&#45;&gt;5</title>
<path fill="none" stroke="black" d="M385.59,-63.67C398.81,-55.22 418.51,-42.61 433.88,-32.79"/>
<polygon fill="black" stroke="black" points="435.8,-35.71 442.34,-27.38 432.03,-29.81 435.8,-35.71"/>
<text text-anchor="middle" x="414" y="-53.8" font-family="Helvetica,Arial,sans-serif" font-size="14.00">15</text>
</g>
<!-- 3 -->
<g id="node3" class="node">
<title>3</title>
<ellipse fill="none" stroke="black" cx="194" cy="-156" rx="18" ry="18"/>
<text text-anchor="middle" x="194" y="-152.3" font-family="Helvetica,Arial,sans-serif" font-size="14.00">3</text>
</g>
<!-- 3&#45;&gt;2 -->
<g id="edge3" class="edge">
<title>3&#45;&gt;2</title>
<path fill="none" stroke="black" d="M209.59,-146.33C222.89,-137.52 242.75,-124.35 258.16,-114.14"/>
<polygon fill="black" stroke="black" points="260.22,-116.97 266.63,-108.53 256.36,-111.13 260.22,-116.97"/>
<text text-anchor="middle" x="238" y="-135.8" font-family="Helvetica,Arial,sans-serif" font-size="14.00">3</text>
</g>
<!-- 3&#45;&gt;4 -->
<g id="edge2" class="edge">
<title>3&#45;&gt;4</title>
<path fill="none" stroke="black" d="M212.21,-154.31C222.2,-153.07 234.95,-151.07 246,-148 287.57,-136.44 299.4,-132.78 334,-107 339.44,-102.95 344.9,-98.11 349.84,-93.36"/>
<polygon fill="black" stroke="black" points="352.48,-95.66 357.08,-86.12 347.54,-90.71 352.48,-95.66"/>
<text text-anchor="middle" x="282" y="-145.8" font-family="Helvetica,Arial,sans-serif" font-size="14.00">6</text>
</g>
<!-- 1 -->
<g id="node4" class="node">
<title>1</title>
<ellipse fill="none" stroke="black" cx="18" cy="-81" rx="18" ry="18"/>
<text text-anchor="middle" x="18" y="-77.3" font-family="Helvetica,Arial,sans-serif" font-size="14.00">1</text>
</g>
<!-- 3&#45;&gt;1 -->
<g id="edge4" class="edge">
<title>3&#45;&gt;1</title>
<path fill="none" stroke="black" d="M175.76,-154.91C147.98,-152.43 92.57,-144.43 54,-119 47.41,-114.66 41.22,-108.81 35.92,-103"/>
<polygon fill="black" stroke="black" points="38.47,-100.59 29.31,-95.26 33.14,-105.14 38.47,-100.59"/>
<text text-anchor="middle" x="106" y="-149.8" font-family="Helvetica,Arial,sans-serif" font-size="14.00">12</text>
</g>
<!-- 1&#45;&gt;4 -->
<g id="edge6" class="edge">
<title>1&#45;&gt;4</title>
<path fill="none" stroke="black" d="M33.57,-71.63C50.17,-61.88 78.45,-48 105,-48 105,-48 105,-48 283,-48 304.12,-48 327.03,-55.04 343.9,-61.64"/>
<polygon fill="black" stroke="black" points="342.96,-65.05 353.54,-65.63 345.64,-58.58 342.96,-65.05"/>
<text text-anchor="middle" x="194" y="-51.8" font-family="Helvetica,Arial,sans-serif" font-size="14.00">2</text>
</g>
<!-- 1&#45;&gt;5 -->
<g id="edge7" class="edge">
<title>1&#45;&gt;5</title>
<path fill="none" stroke="black" d="M27.15,-65.01C40.2,-41.93 68.1,-2 105,-2 105,-2 105,-2 371,-2 391.25,-2 413.73,-6.34 430.63,-10.5"/>
<polygon fill="black" stroke="black" points="429.8,-13.9 440.36,-13.03 431.56,-7.12 429.8,-13.9"/>
<text text-anchor="middle" x="238" y="-5.8" font-family="Helvetica,Arial,sans-serif" font-size="14.00">22</text>
</g>
<!-- 0 -->
<g id="node6" class="node">
<title>0</title>
<ellipse fill="none" stroke="black" cx="106" cy="-104" rx="18" ry="18"/>
<text text-anchor="middle" x="106" y="-100.3" font-family="Helvetica,Arial,sans-serif" font-size="14.00">0</text>
</g>
<!-- 1&#45;&gt;0 -->
<g id="edge8" class="edge">
<title>1&#45;&gt;0</title>
<path fill="none" stroke="black" d="M34.31,-89.17C40.3,-92.06 47.33,-95.06 54,-97 61.55,-99.19 69.94,-100.71 77.69,-101.75"/>
<polygon fill="black" stroke="black" points="77.41,-105.24 87.74,-102.89 78.2,-98.28 77.41,-105.24"/>
<text text-anchor="middle" x="62" y="-103.8" font-family="Helvetica,Arial,sans-serif" font-size="14.00">5</text>
</g>
<!-- 0&#45;&gt;2 -->
<g id="edge9" class="edge">
<title>0&#45;&gt;2</title>
<path fill="none" stroke="black" d="M124,-103.51C154.15,-102.65 217.21,-100.83 253.57,-99.79"/>
<polygon fill="black" stroke="black" points="254.04,-103.28 263.93,-99.49 253.83,-96.28 254.04,-103.28"/>
<text text-anchor="middle" x="194" y="-104.8" font-family="Helvetica,Arial,sans-serif" font-size="14.00">9</text>
</g>
<!-- 0&#45;&gt;3 -->
<g id="edge10" class="edge">
<title>0&#45;&gt;3</title>
<path fill="none" stroke="black" d="M122.32,-112.38C132.53,-118.04 146.18,-125.77 158,-133 161.94,-135.41 166.09,-138.05 170.09,-140.64"/>
<polygon fill="black" stroke="black" points="168.21,-143.6 178.49,-146.16 172.06,-137.75 168.21,-143.6"/>
<text text-anchor="middle" x="150" y="-136.8" font-family="Helvetica,Arial,sans-serif" font-size="14.00">11</text>
</g>
<!-- 0&#45;&gt;1 -->
<g id="edge11" class="edge">
<title>0&#45;&gt;1</title>
<path fill="none" stroke="black" d="M92.53,-91.65C86.3,-86.35 78.34,-80.76 70,-78 62.47,-75.51 53.99,-75.12 46.13,-75.68"/>
<polygon fill="black" stroke="black" points="45.46,-72.23 35.95,-76.9 46.29,-79.18 45.46,-72.23"/>
<text text-anchor="middle" x="62" y="-81.8" font-family="Helvetica,Arial,sans-serif" font-size="14.00">13</text>
</g>
</g>
</svg>
