<?xml version="1.0" encoding="UTF-8" standalone="no"?>
<!DOCTYPE svg PUBLIC "-//W3C//DTD SVG 1.1//EN"
 "http://www.w3.org/Graphics/SVG/1.1/DTD/svg11.dtd">
<!-- Generated by graphviz version 2.43.0 (0)
 -->
<!-- Title: finite_state_machine Pages: 1 -->
<svg width="425pt" height="154pt"
 viewBox="0.00 0.00 424.60 154.00" xmlns="http://www.w3.org/2000/svg" xmlns:xlink="http://www.w3.org/1999/xlink">
<g id="graph0" class="graph" transform="scale(1 1) rotate(0) translate(4 150)">
<title>finite_state_machine</title>
<polygon fill="white" stroke="transparent" points="-4,4 -4,-150 420.6,-150 420.6,4 -4,4"/>
<!-- 2 -->
<g id="node1" class="node">
<title>2</title>
<ellipse fill="none" stroke="black" cx="318.6" cy="-73" rx="18" ry="18"/>
<text text-anchor="middle" x="318.6" y="-69.3" font-family="Helvetica,Arial,sans-serif" font-size="14.00">2</text>
</g>
<!-- 1 -->
<g id="node2" class="node">
<title>1</title>
<ellipse fill="none" stroke="black" cx="398.6" cy="-73" rx="18" ry="18"/>
<text text-anchor="middle" x="398.6" y="-69.3" font-family="Helvetica,Arial,sans-serif" font-size="14.00">1</text>
</g>
<!-- 2&#45;&gt;1 -->
<g id="edge1" class="edge">
<title>2&#45;&gt;1</title>
<path fill="none" stroke="black" d="M336.91,-73C346.7,-73 359.17,-73 370.26,-73"/>
<polygon fill="black" stroke="black" points="370.33,-76.5 380.33,-73 370.33,-69.5 370.33,-76.5"/>
<text text-anchor="middle" x="358.6" y="-76.8" font-family="Helvetica,Arial,sans-serif" font-size="14.00">0</text>
</g>
<!-- 4 -->
<g id="node3" class="node">
<title>4</title>
<ellipse fill="none" stroke="black" cx="318.6" cy="-128" rx="18" ry="18"/>
<text text-anchor="middle" x="318.6" y="-124.3" font-family="Helvetica,Arial,sans-serif" font-size="14.00">4</text>
</g>
<!-- 4&#45;&gt;1 -->
<g id="edge2" class="edge">
<title>4&#45;&gt;1</title>
<path fill="none" stroke="black" d="M333.9,-117.91C345.45,-109.77 361.9,-98.17 375.19,-88.8"/>
<polygon fill="black" stroke="black" points="377.22,-91.65 383.38,-83.02 373.19,-85.93 377.22,-91.65"/>
<text text-anchor="middle" x="358.6" y="-105.8" font-family="Helvetica,Arial,sans-serif" font-size="14.00">5</text>
</g>
<!-- 5 -->
<g id="node4" class="node">
<title>5</title>
<ellipse fill="none" stroke="black" cx="318.6" cy="-18" rx="18" ry="18"/>
<text text-anchor="middle" x="318.6" y="-14.3" font-family="Helvetica,Arial,sans-serif" font-size="14.00">5</text>
</g>
<!-- 5&#45;&gt;1 -->
<g id="edge3" class="edge">
<title>5&#45;&gt;1</title>
<path fill="none" stroke="black" d="M333.9,-28.09C345.45,-36.23 361.9,-47.83 375.19,-57.2"/>
<polygon fill="black" stroke="black" points="373.19,-60.07 383.38,-62.98 377.22,-54.35 373.19,-60.07"/>
<text text-anchor="middle" x="358.6" y="-51.8" font-family="Helvetica,Arial,sans-serif" font-size="14.00">6</text>
</g>
<!-- 24 -->
<g id="node5" class="node">
<title>24</title>
<ellipse fill="none" stroke="black" cx="100.8" cy="-102" rx="20.6" ry="20.6"/>
<text text-anchor="middle" x="100.8" y="-98.3" font-family="Helvetica,Arial,sans-serif" font-size="14.00">24</text>
</g>
<!-- 24&#45;&gt;2 -->
<g id="edge4" class="edge">
<title>24&#45;&gt;2</title>
<path fill="none" stroke="black" d="M120.34,-94C126.37,-91.7 133.18,-89.43 139.6,-88 191.9,-76.34 254.69,-73.58 289.99,-73.03"/>
<polygon fill="black" stroke="black" points="290.47,-76.52 300.43,-72.92 290.39,-69.52 290.47,-76.52"/>
<text text-anchor="middle" x="211.1" y="-91.8" font-family="Helvetica,Arial,sans-serif" font-size="14.00">4611686018427387903</text>
</g>
<!-- 24&#45;&gt;4 -->
<g id="edge5" class="edge">
<title>24&#45;&gt;4</title>
<path fill="none" stroke="black" d="M121.8,-104.7C127.54,-105.46 133.82,-106.28 139.6,-107 192.95,-113.68 255.38,-120.91 290.32,-124.9"/>
<polygon fill="black" stroke="black" points="290.32,-128.43 300.65,-126.08 291.11,-121.47 290.32,-128.43"/>
<text text-anchor="middle" x="211.1" y="-126.8" font-family="Helvetica,Arial,sans-serif" font-size="14.00">4611686018427387903</text>
</g>
<!-- 0 -->
<g id="node6" class="node">
<title>0</title>
<ellipse fill="none" stroke="black" cx="18" cy="-72" rx="18" ry="18"/>
<text text-anchor="middle" x="18" y="-68.3" font-family="Helvetica,Arial,sans-serif" font-size="14.00">0</text>
</g>
<!-- 0&#45;&gt;24 -->
<g id="edge6" class="edge">
<title>0&#45;&gt;24</title>
<path fill="none" stroke="black" d="M35.35,-78.07C45.65,-81.9 59.24,-86.94 71.28,-91.41"/>
<polygon fill="black" stroke="black" points="70.33,-94.79 80.92,-94.99 72.77,-88.23 70.33,-94.79"/>
<text text-anchor="middle" x="58" y="-90.8" font-family="Helvetica,Arial,sans-serif" font-size="14.00">6</text>
</g>
<!-- 25 -->
<g id="node7" class="node">
<title>25</title>
<ellipse fill="none" stroke="black" cx="100.8" cy="-42" rx="20.6" ry="20.6"/>
<text text-anchor="middle" x="100.8" y="-38.3" font-family="Helvetica,Arial,sans-serif" font-size="14.00">25</text>
</g>
<!-- 0&#45;&gt;25 -->
<g id="edge7" class="edge">
<title>0&#45;&gt;25</title>
<path fill="none" stroke="black" d="M35.35,-65.93C45.65,-62.1 59.24,-57.06 71.28,-52.59"/>
<polygon fill="black" stroke="black" points="72.77,-55.77 80.92,-49.01 70.33,-49.21 72.77,-55.77"/>
<text text-anchor="middle" x="58" y="-62.8" font-family="Helvetica,Arial,sans-serif" font-size="14.00">1</text>
</g>
<!-- 25&#45;&gt;2 -->
<g id="edge8" class="edge">
<title>25&#45;&gt;2</title>
<path fill="none" stroke="black" d="M121.81,-40.58C155.67,-38.78 226.09,-37.64 282.6,-54 286.52,-55.14 290.49,-56.76 294.29,-58.58"/>
<polygon fill="black" stroke="black" points="292.75,-61.73 303.22,-63.37 296.06,-55.56 292.75,-61.73"/>
<text text-anchor="middle" x="211.1" y="-57.8" font-family="Helvetica,Arial,sans-serif" font-size="14.00">4611686018427387903</text>
</g>
<!-- 25&#45;&gt;5 -->
<g id="edge9" class="edge">
<title>25&#45;&gt;5</title>
<path fill="none" stroke="black" d="M116.85,-28.54C123.37,-23.58 131.38,-18.55 139.6,-16 191.22,0.04 255.39,-6.77 290.87,-12.7"/>
<polygon fill="black" stroke="black" points="290.45,-16.18 300.91,-14.48 291.68,-9.29 290.45,-16.18"/>
<text text-anchor="middle" x="211.1" y="-19.8" font-family="Helvetica,Arial,sans-serif" font-size="14.00">4611686018427387903</text>
</g>
</g>
</svg>
