<?xml version="1.0" encoding="UTF-8" standalone="no"?>
<!DOCTYPE svg PUBLIC "-//W3C//DTD SVG 1.1//EN"
 "http://www.w3.org/Graphics/SVG/1.1/DTD/svg11.dtd">
<!-- Generated by graphviz version 2.43.0 (0)
 -->
<!-- Title: finite_state_machine Pages: 1 -->
<svg width="680pt" height="288pt"
 viewBox="0.00 0.00 680.00 288.00" xmlns="http://www.w3.org/2000/svg" xmlns:xlink="http://www.w3.org/1999/xlink">
<g id="graph0" class="graph" transform="scale(1 1) rotate(0) translate(4 284)">
<title>finite_state_machine</title>
<polygon fill="white" stroke="transparent" points="-4,4 -4,-284 676,-284 676,4 -4,4"/>
<!-- 5 -->
<g id="node1" class="node">
<title>5</title>
<ellipse fill="none" stroke="black" cx="548" cy="-138" rx="18" ry="18"/>
<text text-anchor="middle" x="548" y="-134.3" font-family="Helvetica,Arial,sans-serif" font-size="14.00">5</text>
</g>
<!-- 7 -->
<g id="node2" class="node">
<title>7</title>
<ellipse fill="none" stroke="black" cx="654" cy="-167" rx="18" ry="18"/>
<text text-anchor="middle" x="654" y="-163.3" font-family="Helvetica,Arial,sans-serif" font-size="14.00">7</text>
</g>
<!-- 5&#45;&gt;7 -->
<g id="edge1" class="edge">
<title>5&#45;&gt;7</title>
<path fill="none" stroke="black" d="M565.71,-142.66C582.16,-147.25 607.53,-154.32 626.69,-159.66"/>
<polygon fill="black" stroke="black" points="625.76,-163.04 636.33,-162.35 627.64,-156.29 625.76,-163.04"/>
<text text-anchor="middle" x="601" y="-159.8" font-family="Helvetica,Arial,sans-serif" font-size="14.00">3/7</text>
</g>
<!-- 4 -->
<g id="node3" class="node">
<title>4</title>
<ellipse fill="none" stroke="black" cx="230" cy="-185" rx="18" ry="18"/>
<text text-anchor="middle" x="230" y="-181.3" font-family="Helvetica,Arial,sans-serif" font-size="14.00">4</text>
</g>
<!-- 4&#45;&gt;5 -->
<g id="edge2" class="edge">
<title>4&#45;&gt;5</title>
<path fill="none" stroke="black" d="M248.06,-187.34C253.75,-188.02 260.14,-188.67 266,-189 281.09,-189.86 284.89,-189.42 300,-189 395.61,-186.35 420.52,-179.92 512,-152 515.19,-151.03 518.5,-149.88 521.75,-148.68"/>
<polygon fill="black" stroke="black" points="523.14,-151.9 531.17,-144.99 520.59,-145.38 523.14,-151.9"/>
<text text-anchor="middle" x="389" y="-187.8" font-family="Helvetica,Arial,sans-serif" font-size="14.00">1/1</text>
</g>
<!-- 4&#45;&gt;7 -->
<g id="edge3" class="edge">
<title>4&#45;&gt;7</title>
<path fill="none" stroke="black" d="M240.57,-199.67C256.93,-222.77 292.63,-265 335,-265 335,-265 335,-265 549,-265 591.53,-265 623.74,-221.05 640.38,-192.01"/>
<polygon fill="black" stroke="black" points="643.48,-193.63 645.23,-183.18 637.34,-190.26 643.48,-193.63"/>
<text text-anchor="middle" x="442" y="-268.8" font-family="Helvetica,Arial,sans-serif" font-size="14.00">7/7</text>
</g>
<!-- 2 -->
<g id="node4" class="node">
<title>2</title>
<ellipse fill="none" stroke="black" cx="336" cy="-122" rx="18" ry="18"/>
<text text-anchor="middle" x="336" y="-118.3" font-family="Helvetica,Arial,sans-serif" font-size="14.00">2</text>
</g>
<!-- 4&#45;&gt;2 -->
<g id="edge4" class="edge">
<title>4&#45;&gt;2</title>
<path fill="none" stroke="black" d="M243.73,-173.22C250.14,-167.62 258.19,-161.06 266,-156 279.89,-147 296.5,-138.75 309.94,-132.63"/>
<polygon fill="black" stroke="black" points="311.37,-135.82 319.09,-128.57 308.53,-129.43 311.37,-135.82"/>
<text text-anchor="middle" x="283" y="-159.8" font-family="Helvetica,Arial,sans-serif" font-size="14.00">2/2</text>
</g>
<!-- 3 -->
<g id="node6" class="node">
<title>3</title>
<ellipse fill="none" stroke="black" cx="442" cy="-125" rx="18" ry="18"/>
<text text-anchor="middle" x="442" y="-121.3" font-family="Helvetica,Arial,sans-serif" font-size="14.00">3</text>
</g>
<!-- 2&#45;&gt;3 -->
<g id="edge6" class="edge">
<title>2&#45;&gt;3</title>
<path fill="none" stroke="black" d="M354.17,-122.5C370.36,-122.96 394.87,-123.67 413.73,-124.21"/>
<polygon fill="black" stroke="black" points="413.7,-127.71 423.8,-124.5 413.91,-120.72 413.7,-127.71"/>
<text text-anchor="middle" x="389" y="-126.8" font-family="Helvetica,Arial,sans-serif" font-size="14.00">11/26</text>
</g>
<!-- 6 -->
<g id="node5" class="node">
<title>6</title>
<ellipse fill="none" stroke="black" cx="548" cy="-84" rx="18" ry="18"/>
<text text-anchor="middle" x="548" y="-80.3" font-family="Helvetica,Arial,sans-serif" font-size="14.00">6</text>
</g>
<!-- 6&#45;&gt;7 -->
<g id="edge5" class="edge">
<title>6&#45;&gt;7</title>
<path fill="none" stroke="black" d="M564.01,-92.32C578.51,-100.68 600.75,-114.41 618,-129 623.93,-134.02 629.86,-139.99 635.1,-145.7"/>
<polygon fill="black" stroke="black" points="632.51,-148.05 641.76,-153.2 637.74,-143.4 632.51,-148.05"/>
<text text-anchor="middle" x="601" y="-132.8" font-family="Helvetica,Arial,sans-serif" font-size="14.00">20/27</text>
</g>
<!-- 3&#45;&gt;5 -->
<g id="edge9" class="edge">
<title>3&#45;&gt;5</title>
<path fill="none" stroke="black" d="M460.17,-127.15C476.36,-129.17 500.87,-132.23 519.73,-134.59"/>
<polygon fill="black" stroke="black" points="519.44,-138.08 529.8,-135.85 520.31,-131.14 519.44,-138.08"/>
<text text-anchor="middle" x="495" y="-136.8" font-family="Helvetica,Arial,sans-serif" font-size="14.00">2/8</text>
</g>
<!-- 3&#45;&gt;7 -->
<g id="edge7" class="edge">
<title>3&#45;&gt;7</title>
<path fill="none" stroke="black" d="M455.77,-136.91C462.05,-142.21 469.99,-148.12 478,-152 521.39,-173.01 535.99,-170.59 584,-175 599.05,-176.38 602.98,-176.69 618,-175 620.75,-174.69 623.6,-174.25 626.43,-173.73"/>
<polygon fill="black" stroke="black" points="627.35,-177.11 636.4,-171.6 625.89,-170.26 627.35,-177.11"/>
<text text-anchor="middle" x="548" y="-176.8" font-family="Helvetica,Arial,sans-serif" font-size="14.00">1/1</text>
</g>
<!-- 3&#45;&gt;4 -->
<g id="edge10" class="edge">
<title>3&#45;&gt;4</title>
<path fill="none" stroke="black" d="M425.59,-133.25C419.59,-136.26 412.58,-139.53 406,-142 355.04,-161.16 292.51,-174.14 257.68,-180.49"/>
<polygon fill="black" stroke="black" points="257.03,-177.05 247.8,-182.24 258.26,-183.94 257.03,-177.05"/>
<text text-anchor="middle" x="336" y="-170.8" font-family="Helvetica,Arial,sans-serif" font-size="14.00">0/20</text>
</g>
<!-- 3&#45;&gt;6 -->
<g id="edge8" class="edge">
<title>3&#45;&gt;6</title>
<path fill="none" stroke="black" d="M458.97,-117.98C464.92,-115.41 471.74,-112.52 478,-110 492.15,-104.31 508.07,-98.28 521.06,-93.46"/>
<polygon fill="black" stroke="black" points="522.58,-96.63 530.75,-89.89 520.16,-90.07 522.58,-96.63"/>
<text text-anchor="middle" x="495" y="-113.8" font-family="Helvetica,Arial,sans-serif" font-size="14.00">18/24</text>
</g>
<!-- 1 -->
<g id="node7" class="node">
<title>1</title>
<ellipse fill="none" stroke="black" cx="124" cy="-103" rx="18" ry="18"/>
<text text-anchor="middle" x="124" y="-99.3" font-family="Helvetica,Arial,sans-serif" font-size="14.00">1</text>
</g>
<!-- 1&#45;&gt;4 -->
<g id="edge13" class="edge">
<title>1&#45;&gt;4</title>
<path fill="none" stroke="black" d="M137.25,-115.35C143.8,-121.74 152.12,-129.54 160,-136 174.82,-148.15 192.45,-160.64 206.18,-169.97"/>
<polygon fill="black" stroke="black" points="204.32,-172.93 214.57,-175.61 208.22,-167.12 204.32,-172.93"/>
<text text-anchor="middle" x="177" y="-164.8" font-family="Helvetica,Arial,sans-serif" font-size="14.00">10/13</text>
</g>
<!-- 1&#45;&gt;2 -->
<g id="edge11" class="edge">
<title>1&#45;&gt;2</title>
<path fill="none" stroke="black" d="M142.19,-104.55C178.58,-107.85 263.68,-115.55 307.64,-119.52"/>
<polygon fill="black" stroke="black" points="307.6,-123.03 317.87,-120.45 308.23,-116.06 307.6,-123.03"/>
<text text-anchor="middle" x="230" y="-117.8" font-family="Helvetica,Arial,sans-serif" font-size="14.00">8/8</text>
</g>
<!-- 1&#45;&gt;3 -->
<g id="edge12" class="edge">
<title>1&#45;&gt;3</title>
<path fill="none" stroke="black" d="M141.82,-100.13C179.9,-94.13 275.53,-81.85 354,-95 375.6,-98.62 399.02,-106.97 416.11,-113.94"/>
<polygon fill="black" stroke="black" points="414.81,-117.19 425.38,-117.84 417.52,-110.74 414.81,-117.19"/>
<text text-anchor="middle" x="283" y="-92.8" font-family="Helvetica,Arial,sans-serif" font-size="14.00">10/10</text>
</g>
<!-- 0 -->
<g id="node8" class="node">
<title>0</title>
<ellipse fill="none" stroke="black" cx="18" cy="-38" rx="18" ry="18"/>
<text text-anchor="middle" x="18" y="-34.3" font-family="Helvetica,Arial,sans-serif" font-size="14.00">0</text>
</g>
<!-- 0&#45;&gt;2 -->
<g id="edge14" class="edge">
<title>0&#45;&gt;2</title>
<path fill="none" stroke="black" d="M36.01,-37.22C81.68,-35.84 209.63,-36.86 300,-85 306.87,-88.66 313.15,-94.17 318.44,-99.84"/>
<polygon fill="black" stroke="black" points="315.83,-102.17 324.99,-107.49 321.15,-97.62 315.83,-102.17"/>
<text text-anchor="middle" x="177" y="-52.8" font-family="Helvetica,Arial,sans-serif" font-size="14.00">1/1</text>
</g>
<!-- 0&#45;&gt;6 -->
<g id="edge15" class="edge">
<title>0&#45;&gt;6</title>
<path fill="none" stroke="black" d="M33.88,-28.8C53.53,-17.56 89.55,0 123,0 123,0 123,0 443,0 481.82,0 514.32,-35.87 532.17,-60.73"/>
<polygon fill="black" stroke="black" points="529.31,-62.74 537.87,-68.98 535.07,-58.76 529.31,-62.74"/>
<text text-anchor="middle" x="283" y="-3.8" font-family="Helvetica,Arial,sans-serif" font-size="14.00">2/2</text>
</g>
<!-- 0&#45;&gt;1 -->
<g id="edge16" class="edge">
<title>0&#45;&gt;1</title>
<path fill="none" stroke="black" d="M33.9,-47.31C51.05,-58.03 79.42,-75.76 99.53,-88.33"/>
<polygon fill="black" stroke="black" points="97.79,-91.37 108.13,-93.7 101.5,-85.44 97.79,-91.37"/>
<text text-anchor="middle" x="71" y="-83.8" font-family="Helvetica,Arial,sans-serif" font-size="14.00">28/38</text>
</g>
</g>
</svg>
