<?xml version="1.0" encoding="UTF-8" standalone="no"?>
<!DOCTYPE svg PUBLIC "-//W3C//DTD SVG 1.1//EN"
 "http://www.w3.org/Graphics/SVG/1.1/DTD/svg11.dtd">
<!-- Generated by graphviz version 2.43.0 (0)
 -->
<!-- Title: finite_state_machine Pages: 1 -->
<svg width="433pt" height="152pt"
 viewBox="0.00 0.00 432.60 152.00" xmlns="http://www.w3.org/2000/svg" xmlns:xlink="http://www.w3.org/1999/xlink">
<g id="graph0" class="graph" transform="scale(1 1) rotate(0) translate(4 148)">
<title>finite_state_machine</title>
<polygon fill="white" stroke="transparent" points="-4,4 -4,-148 428.6,-148 428.6,4 -4,4"/>
<!-- 3 -->
<g id="node1" class="node">
<title>3</title>
<ellipse fill="none" stroke="black" cx="318.6" cy="-72" rx="18" ry="18"/>
<text text-anchor="middle" x="318.6" y="-68.3" font-family="Helvetica,Arial,sans-serif" font-size="14.00">3</text>
</g>
<!-- 1 -->
<g id="node2" class="node">
<title>1</title>
<ellipse fill="none" stroke="black" cx="406.6" cy="-72" rx="18" ry="18"/>
<text text-anchor="middle" x="406.6" y="-68.3" font-family="Helvetica,Arial,sans-serif" font-size="14.00">1</text>
</g>
<!-- 3&#45;&gt;1 -->
<g id="edge1" class="edge">
<title>3&#45;&gt;1</title>
<path fill="none" stroke="black" d="M337,-72C348.85,-72 364.78,-72 378.3,-72"/>
<polygon fill="black" stroke="black" points="378.51,-75.5 388.51,-72 378.51,-68.5 378.51,-75.5"/>
<text text-anchor="middle" x="362.6" y="-75.8" font-family="Helvetica,Arial,sans-serif" font-size="14.00">11</text>
</g>
<!-- 4 -->
<g id="node3" class="node">
<title>4</title>
<ellipse fill="none" stroke="black" cx="318.6" cy="-126" rx="18" ry="18"/>
<text text-anchor="middle" x="318.6" y="-122.3" font-family="Helvetica,Arial,sans-serif" font-size="14.00">4</text>
</g>
<!-- 4&#45;&gt;1 -->
<g id="edge2" class="edge">
<title>4&#45;&gt;1</title>
<path fill="none" stroke="black" d="M334.19,-116.84C347.28,-108.62 366.74,-96.4 382.04,-86.79"/>
<polygon fill="black" stroke="black" points="384.33,-89.49 390.94,-81.21 380.61,-83.56 384.33,-89.49"/>
<text text-anchor="middle" x="362.6" y="-106.8" font-family="Helvetica,Arial,sans-serif" font-size="14.00">13</text>
</g>
<!-- 5 -->
<g id="node4" class="node">
<title>5</title>
<ellipse fill="none" stroke="black" cx="318.6" cy="-18" rx="18" ry="18"/>
<text text-anchor="middle" x="318.6" y="-14.3" font-family="Helvetica,Arial,sans-serif" font-size="14.00">5</text>
</g>
<!-- 5&#45;&gt;1 -->
<g id="edge3" class="edge">
<title>5&#45;&gt;1</title>
<path fill="none" stroke="black" d="M334.19,-27.16C347.28,-35.38 366.74,-47.6 382.04,-57.21"/>
<polygon fill="black" stroke="black" points="380.61,-60.44 390.94,-62.79 384.33,-54.51 380.61,-60.44"/>
<text text-anchor="middle" x="362.6" y="-52.8" font-family="Helvetica,Arial,sans-serif" font-size="14.00">14</text>
</g>
<!-- 0 -->
<g id="node5" class="node">
<title>0</title>
<ellipse fill="none" stroke="black" cx="18" cy="-45" rx="18" ry="18"/>
<text text-anchor="middle" x="18" y="-41.3" font-family="Helvetica,Arial,sans-serif" font-size="14.00">0</text>
</g>
<!-- 35 -->
<g id="node6" class="node">
<title>35</title>
<ellipse fill="none" stroke="black" cx="100.8" cy="-45" rx="20.6" ry="20.6"/>
<text text-anchor="middle" x="100.8" y="-41.3" font-family="Helvetica,Arial,sans-serif" font-size="14.00">35</text>
</g>
<!-- 0&#45;&gt;35 -->
<g id="edge4" class="edge">
<title>0&#45;&gt;35</title>
<path fill="none" stroke="black" d="M36.14,-45C45.82,-45 58.22,-45 69.5,-45"/>
<polygon fill="black" stroke="black" points="69.84,-48.5 79.84,-45 69.84,-41.5 69.84,-48.5"/>
<text text-anchor="middle" x="58" y="-48.8" font-family="Helvetica,Arial,sans-serif" font-size="14.00">2</text>
</g>
<!-- 35&#45;&gt;3 -->
<g id="edge5" class="edge">
<title>35&#45;&gt;3</title>
<path fill="none" stroke="black" d="M121.71,-47.49C160.56,-52.35 246.49,-63.1 290.48,-68.61"/>
<polygon fill="black" stroke="black" points="290.1,-72.09 300.46,-69.86 290.97,-65.14 290.1,-72.09"/>
<text text-anchor="middle" x="211.1" y="-70.8" font-family="Helvetica,Arial,sans-serif" font-size="14.00">4611686018427387903</text>
</g>
<!-- 35&#45;&gt;5 -->
<g id="edge6" class="edge">
<title>35&#45;&gt;5</title>
<path fill="none" stroke="black" d="M120.33,-36.95C126.36,-34.65 133.17,-32.4 139.6,-31 191.92,-19.64 254.71,-17.69 289.99,-17.63"/>
<polygon fill="black" stroke="black" points="290.42,-21.13 300.43,-17.66 290.45,-14.13 290.42,-21.13"/>
<text text-anchor="middle" x="211.1" y="-34.8" font-family="Helvetica,Arial,sans-serif" font-size="14.00">4611686018427387903</text>
</g>
</g>
</svg>
